<svg width="109" height="38" viewBox="0 0 109 38" fill="none" xmlns="http://www.w3.org/2000/svg">
<path d="M26.44 11.56H32.968C34.68 11.56 35.96 12.048 36.808 13.024C37.656 13.984 38.08 15.376 38.08 17.2C38.08 19.28 37.584 20.728 36.592 21.544C35.616 22.344 34.24 22.744 32.464 22.744H30.736V31H26.44V11.56ZM32.176 19.744C32.928 19.744 33.424 19.544 33.664 19.144C33.92 18.744 34.048 18.072 34.048 17.128C34.048 16.264 33.928 15.624 33.688 15.208C33.448 14.792 32.936 14.584 32.152 14.584H30.736V19.744H32.176ZM44.4715 31.24C42.9515 31.24 41.7595 30.856 40.8955 30.088C40.0475 29.32 39.6235 28.192 39.6235 26.704V21.424C39.6235 19.936 40.0475 18.808 40.8955 18.04C41.7595 17.272 42.9515 16.888 44.4715 16.888C45.9915 16.888 47.1835 17.28 48.0475 18.064C48.9115 18.832 49.3435 19.952 49.3435 21.424V26.704C49.3435 28.176 48.9115 29.304 48.0475 30.088C47.1835 30.856 45.9915 31.24 44.4715 31.24ZM44.4955 28.648C44.8635 28.648 45.1195 28.512 45.2635 28.24C45.4075 27.952 45.4795 27.528 45.4795 26.968V21.16C45.4795 20.6 45.4075 20.184 45.2635 19.912C45.1195 19.624 44.8635 19.48 44.4955 19.48C44.1275 19.48 43.8635 19.624 43.7035 19.912C43.5595 20.2 43.4875 20.616 43.4875 21.16V26.968C43.4875 27.528 43.5595 27.952 43.7035 28.24C43.8635 28.512 44.1275 28.648 44.4955 28.648ZM51.5131 11.56H55.4011V22.336L58.8091 17.128H63.2011L59.5051 22.816L63.1531 31H58.8811L56.4331 24.4L55.4011 25.72V31H51.5131V11.56ZM68.9163 31.24C67.3963 31.24 66.2123 30.84 65.3643 30.04C64.5163 29.224 64.0923 28.08 64.0923 26.608V21.52C64.0923 20.048 64.5163 18.912 65.3643 18.112C66.2123 17.296 67.3963 16.888 68.9163 16.888C70.4523 16.888 71.6043 17.28 72.3723 18.064C73.1403 18.848 73.5243 20 73.5243 21.52V24.304H67.9563V26.968C67.9563 27.96 68.2763 28.456 68.9163 28.456C69.5883 28.456 69.9243 28.008 69.9243 27.112V25.648H73.5243V26.992C73.5243 28.384 73.1163 29.44 72.3003 30.16C71.5003 30.88 70.3723 31.24 68.9163 31.24ZM69.9243 22.48V21.088C69.9243 20.576 69.8283 20.216 69.6363 20.008C69.4603 19.784 69.2123 19.672 68.8923 19.672C68.5883 19.672 68.3563 19.792 68.1963 20.032C68.0363 20.272 67.9563 20.696 67.9563 21.304V22.48H69.9243ZM75.8697 11.56H80.1657V28.096H84.6297V31H75.8697V11.56ZM89.1503 31.24C88.4783 31.24 87.8943 31.08 87.3983 30.76C86.9183 30.424 86.5503 30 86.2943 29.488C86.0543 28.96 85.9343 28.416 85.9343 27.856C85.9343 26.784 86.2063 25.904 86.7503 25.216C87.2943 24.528 87.9423 23.992 88.6943 23.608C89.4623 23.224 90.4463 22.824 91.6463 22.408V21.016C91.6463 20.616 91.5823 20.312 91.4543 20.104C91.3423 19.896 91.1343 19.792 90.8303 19.792C90.5263 19.792 90.3103 19.888 90.1823 20.08C90.0543 20.272 89.9823 20.544 89.9663 20.896L89.8703 21.904L86.2223 21.76C86.2863 20.096 86.7263 18.872 87.5423 18.088C88.3583 17.288 89.5743 16.888 91.1903 16.888C92.5503 16.888 93.5903 17.272 94.3103 18.04C95.0303 18.792 95.3903 19.8 95.3903 21.064V27.544C95.3903 28.952 95.4703 30.104 95.6303 31H92.1263C91.9823 29.928 91.8783 29.272 91.8143 29.032C91.6223 29.672 91.3023 30.2 90.8543 30.616C90.4063 31.032 89.8383 31.24 89.1503 31.24ZM90.5423 28.6C90.9423 28.6 91.3103 28.368 91.6463 27.904V24.112C90.9263 24.528 90.3823 24.968 90.0143 25.432C89.6463 25.88 89.4623 26.432 89.4623 27.088C89.4623 27.552 89.5583 27.92 89.7503 28.192C89.9423 28.464 90.2063 28.6 90.5423 28.6ZM104.596 31.24C103.604 31.24 102.612 30.808 101.62 29.944V31H97.7084V11.56H101.62V18.136C102.084 17.72 102.58 17.408 103.108 17.2C103.636 16.992 104.148 16.888 104.644 16.888C105.652 16.888 106.396 17.264 106.876 18.016C107.372 18.768 107.62 19.752 107.62 20.968V26.944C107.62 28.272 107.356 29.32 106.828 30.088C106.3 30.856 105.556 31.24 104.596 31.24ZM102.7 28.72C103.052 28.72 103.308 28.576 103.468 28.288C103.628 28 103.708 27.624 103.708 27.16V20.68C103.708 20.248 103.628 19.904 103.468 19.648C103.324 19.376 103.084 19.24 102.748 19.24C102.38 19.24 102.004 19.392 101.62 19.696V28.336C101.972 28.592 102.332 28.72 102.7 28.72Z" fill="white"/>
<g clip-path="url(#clip0_7_9)">
<path fill-rule="evenodd" clip-rule="evenodd" d="M20.6094 22.813C19.9753 16.242 17.6798 13.8874 18.5382 10.954L19.5493 7.49887L20.1251 7.66738C20.2778 7.71207 20.4421 7.69426 20.5816 7.61787C20.7212 7.54147 20.8248 7.41276 20.8695 7.26003L21.2065 6.10833C21.2512 5.9556 21.2334 5.79138 21.157 5.65178C21.0806 5.51219 20.9519 5.40866 20.7991 5.36397L15.0406 3.67889C14.8879 3.6342 14.7237 3.65201 14.5841 3.7284C14.4445 3.80479 14.3409 3.93351 14.2963 4.08624L13.9592 5.23794C13.9146 5.39067 13.9324 5.55489 14.0088 5.69448C14.0851 5.83408 14.2139 5.93761 14.3666 5.9823L14.9424 6.15081L13.9314 9.60592C13.073 12.5393 9.87028 13.285 5.79391 18.4776C4.4965 20.1297 1.77044 22.3015 11.8536 25.2521C21.9368 28.2027 20.8115 24.9039 20.6094 22.813V22.813ZM18.157 24.2846C17.2777 24.2899 15.5883 24.0944 12.4602 23.179C9.3322 22.2637 7.80382 21.5176 7.0661 21.0392C6.80426 20.87 6.78995 20.5045 6.9806 20.229C7.45978 19.5315 8.328 18.3377 9.65748 17.11C12.9057 14.1108 13.939 18.9843 15.8244 19.536C17.7097 20.0877 17.7187 18.1386 18.0926 19.5783C18.4348 20.9094 18.6271 22.2745 18.6658 23.6483C18.6778 23.9832 18.4691 24.2822 18.157 24.2846V24.2846Z" fill="white"/>
</g>
<defs>
<clipPath id="clip0_7_9">
<rect width="24" height="24" fill="white" transform="translate(6.7403) rotate(16.3107)"/>
</clipPath>
</defs>
</svg>
