<svg width="82" height="21" viewBox="0 0 82 21" fill="none" xmlns="http://www.w3.org/2000/svg">
<path d="M0.44 0.559999H6.968C8.68 0.559999 9.96 1.048 10.808 2.024C11.656 2.984 12.08 4.376 12.08 6.2C12.08 8.28 11.584 9.728 10.592 10.544C9.616 11.344 8.24 11.744 6.464 11.744H4.736V20H0.44V0.559999ZM6.176 8.744C6.928 8.744 7.424 8.544 7.664 8.144C7.92 7.744 8.048 7.072 8.048 6.128C8.048 5.264 7.928 4.624 7.688 4.208C7.448 3.792 6.936 3.584 6.152 3.584H4.736V8.744H6.176ZM18.4715 20.24C16.9515 20.24 15.7595 19.856 14.8955 19.088C14.0475 18.32 13.6235 17.192 13.6235 15.704V10.424C13.6235 8.936 14.0475 7.808 14.8955 7.04C15.7595 6.272 16.9515 5.888 18.4715 5.888C19.9915 5.888 21.1835 6.28 22.0475 7.064C22.9115 7.832 23.3435 8.952 23.3435 10.424V15.704C23.3435 17.176 22.9115 18.304 22.0475 19.088C21.1835 19.856 19.9915 20.24 18.4715 20.24ZM18.4955 17.648C18.8635 17.648 19.1195 17.512 19.2635 17.24C19.4075 16.952 19.4795 16.528 19.4795 15.968V10.16C19.4795 9.6 19.4075 9.184 19.2635 8.912C19.1195 8.624 18.8635 8.48 18.4955 8.48C18.1275 8.48 17.8635 8.624 17.7035 8.912C17.5595 9.2 17.4875 9.616 17.4875 10.16V15.968C17.4875 16.528 17.5595 16.952 17.7035 17.24C17.8635 17.512 18.1275 17.648 18.4955 17.648ZM25.5131 0.559999H29.4011V11.336L32.8091 6.128H37.2011L33.5051 11.816L37.1531 20H32.8811L30.4331 13.4L29.4011 14.72V20H25.5131V0.559999ZM42.9163 20.24C41.3963 20.24 40.2123 19.84 39.3643 19.04C38.5163 18.224 38.0923 17.08 38.0923 15.608V10.52C38.0923 9.048 38.5163 7.912 39.3643 7.112C40.2123 6.296 41.3963 5.888 42.9163 5.888C44.4523 5.888 45.6043 6.28 46.3723 7.064C47.1403 7.848 47.5243 9 47.5243 10.52V13.304H41.9563V15.968C41.9563 16.96 42.2763 17.456 42.9163 17.456C43.5883 17.456 43.9243 17.008 43.9243 16.112V14.648H47.5243V15.992C47.5243 17.384 47.1163 18.44 46.3003 19.16C45.5003 19.88 44.3723 20.24 42.9163 20.24ZM43.9243 11.48V10.088C43.9243 9.576 43.8283 9.216 43.6363 9.008C43.4603 8.784 43.2123 8.672 42.8923 8.672C42.5883 8.672 42.3563 8.792 42.1963 9.032C42.0363 9.272 41.9563 9.696 41.9563 10.304V11.48H43.9243ZM49.8697 0.559999H54.1657V17.096H58.6297V20H49.8697V0.559999ZM63.1503 20.24C62.4783 20.24 61.8943 20.08 61.3983 19.76C60.9183 19.424 60.5503 19 60.2943 18.488C60.0543 17.96 59.9343 17.416 59.9343 16.856C59.9343 15.784 60.2063 14.904 60.7503 14.216C61.2943 13.528 61.9423 12.992 62.6943 12.608C63.4623 12.224 64.4463 11.824 65.6463 11.408V10.016C65.6463 9.616 65.5823 9.312 65.4543 9.104C65.3423 8.896 65.1343 8.792 64.8303 8.792C64.5263 8.792 64.3103 8.888 64.1823 9.08C64.0543 9.272 63.9823 9.544 63.9663 9.896L63.8703 10.904L60.2223 10.76C60.2863 9.096 60.7263 7.872 61.5423 7.088C62.3583 6.288 63.5743 5.888 65.1903 5.888C66.5503 5.888 67.5903 6.272 68.3103 7.04C69.0303 7.792 69.3903 8.8 69.3903 10.064V16.544C69.3903 17.952 69.4703 19.104 69.6303 20H66.1263C65.9823 18.928 65.8783 18.272 65.8143 18.032C65.6223 18.672 65.3023 19.2 64.8543 19.616C64.4063 20.032 63.8383 20.24 63.1503 20.24ZM64.5423 17.6C64.9423 17.6 65.3103 17.368 65.6463 16.904V13.112C64.9263 13.528 64.3823 13.968 64.0143 14.432C63.6463 14.88 63.4623 15.432 63.4623 16.088C63.4623 16.552 63.5583 16.92 63.7503 17.192C63.9423 17.464 64.2063 17.6 64.5423 17.6ZM78.5964 20.24C77.6044 20.24 76.6124 19.808 75.6204 18.944V20H71.7084V0.559999H75.6204V7.136C76.0844 6.72 76.5804 6.408 77.1084 6.2C77.6364 5.992 78.1484 5.888 78.6444 5.888C79.6524 5.888 80.3964 6.264 80.8764 7.016C81.3724 7.768 81.6204 8.752 81.6204 9.968V15.944C81.6204 17.272 81.3564 18.32 80.8284 19.088C80.3004 19.856 79.5564 20.24 78.5964 20.24ZM76.7004 17.72C77.0524 17.72 77.3084 17.576 77.4684 17.288C77.6284 17 77.7084 16.624 77.7084 16.16V9.68C77.7084 9.248 77.6284 8.904 77.4684 8.648C77.3244 8.376 77.0844 8.24 76.7484 8.24C76.3804 8.24 76.0044 8.392 75.6204 8.696V17.336C75.9724 17.592 76.3324 17.72 76.7004 17.72Z" fill="white"/>
</svg>
